<svg version="1.1" viewBox="0.0 0.0 960.0 480.0" fill="none" stroke="none" stroke-linecap="square" stroke-miterlimit="10" xmlns:xlink="http://www.w3.org/1999/xlink" xmlns="http://www.w3.org/2000/svg"><clipPath id="p.0"><path d="m0 0l960.0 0l0 480.0l-960.0 0l0 -480.0z" clip-rule="nonzero"/></clipPath><g clip-path="url(#p.0)"><path fill="#000000" fill-opacity="0.0" d="m0 0l960.0 0l0 480.0l-960.0 0z" fill-rule="evenodd"/><path fill="#000000" fill-opacity="0.8326" d="m457.19467 59.429077c-7.9272766 0 -14.643951 3.0035324 -20.150085 9.01059c-5.506134 5.965637 -8.259216 13.153397 -8.259216 21.563278c0 8.409882 2.7530823 15.535507 8.259216 21.376854c5.506134 5.8413544 12.222809 8.762024 20.150085 8.762024c7.9272766 0 14.702545 -2.9206696 20.325806 -8.762024c5.6623535 -5.8413467 8.4935 -12.966972 8.4935 -21.376854c0 -8.409882 -2.8311462 -15.597641 -8.4935 -21.563278c-5.6232605 -6.007057 -12.398529 -9.01059 -20.325806 -9.01059zm288.27176 0c-7.927246 0 -14.643921 3.0035324 -20.150085 9.01059c-5.5061035 5.965637 -8.259155 13.153397 -8.259155 21.563278c0 8.409882 2.7530518 15.535507 8.259155 21.376854c5.5061646 5.8413544 12.222839 8.762024 20.150085 8.762024c7.927307 0 14.702576 -2.9206696 20.325867 -8.762024c5.6622925 -5.8413467 8.493469 -12.966972 8.493469 -21.376854c0 -8.409882 -2.8311768 -15.597641 -8.493469 -21.563278c-5.623291 -6.007057 -12.39856 -9.01059 -20.325867 -9.01059zm128.13159 106.94641c11.988525 0 17.982788 10.564133 17.982788 31.692429c0 13.712677 -1.7377319 28.523178 -5.213257 44.431534c-3.4754639 15.908356 -9.00116 29.600311 -16.576965 41.075867c-7.536743 11.434143 -17.065063 17.151215 -28.58496 17.151215c-7.1853027 0 -11.754211 -2.9206848 -13.706787 -8.762024l21.263062 -106.88428c3.3583374 -5.882782 7.2438965 -10.460587 11.656555 -13.733383c4.451782 -3.3142395 8.844971 -4.9713593 13.179565 -4.9713593zm-736.00665 -121.05264c-19.64244 0 -39.30439 4.784935 -58.985878 14.354805c-19.681488 9.528446 -35.828888 21.998272 -48.44223 37.40949c-12.574274 15.369789 -18.861423 31.19529 -18.861423 47.47651c0 13.256958 3.1630964 22.743973 9.489289 28.46103c6.3652325 5.7170715 16.030247 8.575607 28.995045 8.575607c0 -0.4971466 -0.8395958 -2.589264 -2.5187607 -6.276352c-1.6791649 -3.687088 -2.5187607 -10.232697 -2.5187607 -19.636871c0 -29.289597 8.220154 -52.075005 24.66043 -68.35622c16.440285 -16.281204 39.304398 -24.42181 68.59232 -24.42181c14.839233 0 25.968643 4.84708 33.388245 14.541233c7.458664 9.652725 11.187988 22.101845 11.187988 37.34735c0 13.754097 -2.753067 27.756752 -8.259201 42.008003c-5.506134 14.251221 -13.120987 26.223923 -22.84459 35.918076c-9.723587 9.652725 -20.345352 14.996933 -31.865257 16.032639l25.53907 -127.51541l-53.245453 7.5813293l-48.91083 242.851l51.781055 0l21.965942 -108.81067l1.8158493 0c20.618706 0 38.835793 -5.012802 54.651268 -15.038376c15.854523 -10.067001 28.0383 -22.992538 36.55133 -38.77661c8.513031 -15.784073 12.7695465 -31.9617 12.7695465 -48.532913c0 -13.712677 -3.0654907 -26.22393 -9.196411 -37.533775c-6.0918884 -11.351273 -15.503067 -20.465435 -28.233566 -27.342487c-12.6914215 -6.8770485 -28.526443 -10.315575 -47.50502 -10.315575zm169.54843 19.077595l-53.304016 7.643471l-52.132507 259.62933l51.78105 0l24.484695 -122.54405c2.88974 -10.439865 6.7362366 -18.891174 11.539459 -25.353943c4.8032227 -6.5042114 10.309357 -9.756302 16.518372 -9.756302c8.630188 0 12.945282 6.4834747 12.945282 19.450455c0 5.344208 -0.8395996 12.345551 -2.5187683 21.003998c-1.6791687 8.658463 -3.4754944 17.441208 -5.388977 26.34822c-0.4685974 1.7813873 -1.3667603 5.86203 -2.6944885 12.241974c-1.3277283 6.3384705 -2.5968628 12.884125 -3.807434 19.636871c-1.1715088 6.7527466 -1.7572632 12.80127 -1.7572632 18.145477c0 12.221252 3.4169006 22.47467 10.250763 30.760284c6.8338623 8.244171 17.572754 12.366272 32.216705 12.366272c12.457153 0 24.504242 -4.764221 36.141327 -14.292664c4.933014 -4.0567017 9.620422 -9.769806 14.062225 -17.139313l0 0c1.593811 8.299927 4.711029 14.965881 9.351624 19.997833c7.0681458 7.6227417 16.362183 11.434143 27.88211 11.434143c13.667694 0 27.452545 -4.888489 41.354553 -14.665527c6.240326 -4.394928 11.972046 -10.562073 17.19519 -18.501434l0 0c1.4795227 9.110687 4.6990967 16.35495 9.658752 21.732819c7.0681458 7.6227417 16.362183 11.434143 27.88208 11.434143c13.667725 0 27.452576 -4.888489 41.354553 -14.665527c6.2403564 -4.394928 11.972046 -10.562073 17.19519 -18.501434l0 0c1.4795532 9.110687 4.6991577 16.35495 9.658752 21.732819c7.0681763 7.6227417 16.362244 11.434143 27.882141 11.434143c13.667664 0 27.452515 -4.888489 41.354553 -14.665527c6.2402954 -4.394928 11.972046 -10.562073 17.19519 -18.501434l0 0c1.4794922 9.110687 4.6990967 16.35495 9.658752 21.732819c7.068115 7.6227417 16.362183 11.434143 27.88208 11.434143c13.667725 0 27.452576 -4.888489 41.354553 -14.665527c3.3762817 -2.3778381 6.6036377 -5.2744446 9.68219 -8.689819l0 0l-23.304138 116.506226l54.358337 -13.733398l18.68573 -93.15088c5.0375366 9.155609 15.229736 13.733398 30.5766 13.733398c21.59497 0 38.992004 -7.187744 52.1911 -21.563293c13.199097 -14.375519 22.551697 -31.816711 28.0578 -52.323578c5.545166 -20.506851 8.317749 -40.80658 8.317749 -60.89917c0 -21.376846 -3.963623 -36.767365 -11.890869 -46.17151c-7.927246 -9.445587 -18.607605 -14.168381 -32.041016 -14.168381c-16.049744 0 -30.08844 5.4684906 -42.116028 16.405487l5.799011 -28.58532l-51.8396 0l-27.333496 136.65027l-0.047668457 0c-2.616333 9.9427185 -6.9314575 18.041931 -12.945251 24.297546c-5.9747314 6.214203 -12.457092 9.321289 -19.447144 9.321289c-5.2718506 0 -9.040222 -1.0771484 -11.305176 -3.2313843c-2.2648926 -2.1956787 -3.3974 -5.820648 -3.3974 -10.874847c0 -4.349945 0.46862793 -8.430603 1.4058228 -12.241974l25.949097 -129.81467l-51.8396 0l-24.484741 122.54404l-0.026184082 0c-2.616394 9.9427185 -6.9314575 18.041931 -12.945251 24.297546c-5.9747314 6.214203 -12.457153 9.321289 -19.447205 9.321289c-5.2717896 0 -9.040161 -1.0771484 -11.305115 -3.2313843c-2.2649536 -2.1956787 -3.3974 -5.820648 -3.3974 -10.874847c0 -4.349945 0.4685669 -8.430603 1.4058228 -12.241974l41.413086 -206.18721l-53.304016 7.643471l-38.484314 191.2731l-0.026184082 0c-2.616394 9.9427185 -6.9314575 18.041931 -12.945251 24.297546c-5.9747925 6.214203 -12.457153 9.321289 -19.447205 9.321289c-5.2718506 0 -9.040222 -1.0771484 -11.305176 -3.2313843c-2.2648926 -2.1956787 -3.3973389 -5.820648 -3.3973389 -10.874847c0 -4.349945 0.4685669 -8.430603 1.4057617 -12.241974l41.413147 -206.18721l-53.304016 7.643471l-38.484344 191.2731l-0.026184082 0c-2.616394 9.9427185 -6.931488 18.041931 -12.945282 24.297546c-5.9747314 6.214203 -12.457123 9.321289 -19.447174 9.321289c-5.27182 0 -9.040192 -1.0771484 -11.305145 -3.2313843c-2.264923 -2.1956787 -3.3974 -5.820648 -3.3974 -10.874847c0 -4.349945 0.46862793 -8.430603 1.4058228 -12.241974l25.949097 -129.81467l-51.83963 0l-24.48468 122.54404c-0.005432129 0.028869629 -0.01083374 0.05770874 -0.016235352 0.08654785l0 0c-4.3237305 11.43161 -8.64743 19.874786 -12.97113 25.32956c-4.2955627 5.4684753 -10.036011 8.202728 -17.221313 8.202728c-5.3108826 0 -9.040192 -1.3878479 -11.187988 -4.163513c-2.1477966 -2.8171082 -3.2216797 -6.773468 -3.2216797 -11.86911c0 -4.349945 0.78100586 -10.27417 2.343048 -17.772614c1.5620117 -7.498474 3.2997742 -15.204086 5.213257 -23.116837c3.1240234 -12.966965 5.525635 -23.966095 7.204834 -32.99742c1.6791687 -9.031296 2.5187378 -17.23404 2.5187378 -24.60823c0 -14.541229 -3.612152 -25.37465 -10.836517 -32.500275c-7.1853027 -7.1256256 -16.889374 -10.688431 -29.112213 -10.688431c-16.088837 0 -30.127502 7.1256256 -42.116028 21.376862l19.447174 -96.19585z" fill-rule="evenodd"/><path stroke="#595959" stroke-width="1.0" stroke-linejoin="round" stroke-linecap="butt" d="m457.19467 59.429077c-7.9272766 0 -14.643951 3.0035324 -20.150085 9.01059c-5.506134 5.965637 -8.259216 13.153397 -8.259216 21.563278c0 8.409882 2.7530823 15.535507 8.259216 21.376854c5.506134 5.8413544 12.222809 8.762024 20.150085 8.762024c7.9272766 0 14.702545 -2.9206696 20.325806 -8.762024c5.6623535 -5.8413467 8.4935 -12.966972 8.4935 -21.376854c0 -8.409882 -2.8311462 -15.597641 -8.4935 -21.563278c-5.6232605 -6.007057 -12.398529 -9.01059 -20.325806 -9.01059zm288.27176 0c-7.927246 0 -14.643921 3.0035324 -20.150085 9.01059c-5.5061035 5.965637 -8.259155 13.153397 -8.259155 21.563278c0 8.409882 2.7530518 15.535507 8.259155 21.376854c5.5061646 5.8413544 12.222839 8.762024 20.150085 8.762024c7.927307 0 14.702576 -2.9206696 20.325867 -8.762024c5.6622925 -5.8413467 8.493469 -12.966972 8.493469 -21.376854c0 -8.409882 -2.8311768 -15.597641 -8.493469 -21.563278c-5.623291 -6.007057 -12.39856 -9.01059 -20.325867 -9.01059zm128.13159 106.94641c11.988525 0 17.982788 10.564133 17.982788 31.692429c0 13.712677 -1.7377319 28.523178 -5.213257 44.431534c-3.4754639 15.908356 -9.00116 29.600311 -16.576965 41.075867c-7.536743 11.434143 -17.065063 17.151215 -28.58496 17.151215c-7.1853027 0 -11.754211 -2.9206848 -13.706787 -8.762024l21.263062 -106.88428c3.3583374 -5.882782 7.2438965 -10.460587 11.656555 -13.733383c4.451782 -3.3142395 8.844971 -4.9713593 13.179565 -4.9713593zm-736.00665 -121.05264c-19.64244 0 -39.30439 4.784935 -58.985878 14.354805c-19.681488 9.528446 -35.828888 21.998272 -48.44223 37.40949c-12.574274 15.369789 -18.861423 31.19529 -18.861423 47.47651c0 13.256958 3.1630964 22.743973 9.489289 28.46103c6.3652325 5.7170715 16.030247 8.575607 28.995045 8.575607c0 -0.4971466 -0.8395958 -2.589264 -2.5187607 -6.276352c-1.6791649 -3.687088 -2.5187607 -10.232697 -2.5187607 -19.636871c0 -29.289597 8.220154 -52.075005 24.66043 -68.35622c16.440285 -16.281204 39.304398 -24.42181 68.59232 -24.42181c14.839233 0 25.968643 4.84708 33.388245 14.541233c7.458664 9.652725 11.187988 22.101845 11.187988 37.34735c0 13.754097 -2.753067 27.756752 -8.259201 42.008003c-5.506134 14.251221 -13.120987 26.223923 -22.84459 35.918076c-9.723587 9.652725 -20.345352 14.996933 -31.865257 16.032639l25.53907 -127.51541l-53.245453 7.5813293l-48.91083 242.851l51.781055 0l21.965942 -108.81067l1.8158493 0c20.618706 0 38.835793 -5.012802 54.651268 -15.038376c15.854523 -10.067001 28.0383 -22.992538 36.55133 -38.77661c8.513031 -15.784073 12.7695465 -31.9617 12.7695465 -48.532913c0 -13.712677 -3.0654907 -26.22393 -9.196411 -37.533775c-6.0918884 -11.351273 -15.503067 -20.465435 -28.233566 -27.342487c-12.6914215 -6.8770485 -28.526443 -10.315575 -47.50502 -10.315575zm169.54843 19.077595l-53.304016 7.643471l-52.132507 259.62933l51.78105 0l24.484695 -122.54405c2.88974 -10.439865 6.7362366 -18.891174 11.539459 -25.353943c4.8032227 -6.5042114 10.309357 -9.756302 16.518372 -9.756302c8.630188 0 12.945282 6.4834747 12.945282 19.450455c0 5.344208 -0.8395996 12.345551 -2.5187683 21.003998c-1.6791687 8.658463 -3.4754944 17.441208 -5.388977 26.34822c-0.4685974 1.7813873 -1.3667603 5.86203 -2.6944885 12.241974c-1.3277283 6.3384705 -2.5968628 12.884125 -3.807434 19.636871c-1.1715088 6.7527466 -1.7572632 12.80127 -1.7572632 18.145477c0 12.221252 3.4169006 22.47467 10.250763 30.760284c6.8338623 8.244171 17.572754 12.366272 32.216705 12.366272c12.457153 0 24.504242 -4.764221 36.141327 -14.292664c4.933014 -4.0567017 9.620422 -9.769806 14.062225 -17.139313l0 0c1.593811 8.299927 4.711029 14.965881 9.351624 19.997833c7.0681458 7.6227417 16.362183 11.434143 27.88211 11.434143c13.667694 0 27.452545 -4.888489 41.354553 -14.665527c6.240326 -4.394928 11.972046 -10.562073 17.19519 -18.501434l0 0c1.4795227 9.110687 4.6990967 16.35495 9.658752 21.732819c7.0681458 7.6227417 16.362183 11.434143 27.88208 11.434143c13.667725 0 27.452576 -4.888489 41.354553 -14.665527c6.2403564 -4.394928 11.972046 -10.562073 17.19519 -18.501434l0 0c1.4795532 9.110687 4.6991577 16.35495 9.658752 21.732819c7.0681763 7.6227417 16.362244 11.434143 27.882141 11.434143c13.667664 0 27.452515 -4.888489 41.354553 -14.665527c6.2402954 -4.394928 11.972046 -10.562073 17.19519 -18.501434l0 0c1.4794922 9.110687 4.6990967 16.35495 9.658752 21.732819c7.068115 7.6227417 16.362183 11.434143 27.88208 11.434143c13.667725 0 27.452576 -4.888489 41.354553 -14.665527c3.3762817 -2.3778381 6.6036377 -5.2744446 9.68219 -8.689819l0 0l-23.304138 116.506226l54.358337 -13.733398l18.68573 -93.15088c5.0375366 9.155609 15.229736 13.733398 30.5766 13.733398c21.59497 0 38.992004 -7.187744 52.1911 -21.563293c13.199097 -14.375519 22.551697 -31.816711 28.0578 -52.323578c5.545166 -20.506851 8.317749 -40.80658 8.317749 -60.89917c0 -21.376846 -3.963623 -36.767365 -11.890869 -46.17151c-7.927246 -9.445587 -18.607605 -14.168381 -32.041016 -14.168381c-16.049744 0 -30.08844 5.4684906 -42.116028 16.405487l5.799011 -28.58532l-51.8396 0l-27.333496 136.65027l-0.047668457 0c-2.616333 9.9427185 -6.9314575 18.041931 -12.945251 24.297546c-5.9747314 6.214203 -12.457092 9.321289 -19.447144 9.321289c-5.2718506 0 -9.040222 -1.0771484 -11.305176 -3.2313843c-2.2648926 -2.1956787 -3.3974 -5.820648 -3.3974 -10.874847c0 -4.349945 0.46862793 -8.430603 1.4058228 -12.241974l25.949097 -129.81467l-51.8396 0l-24.484741 122.54404l-0.026184082 0c-2.616394 9.9427185 -6.9314575 18.041931 -12.945251 24.297546c-5.9747314 6.214203 -12.457153 9.321289 -19.447205 9.321289c-5.2717896 0 -9.040161 -1.0771484 -11.305115 -3.2313843c-2.2649536 -2.1956787 -3.3974 -5.820648 -3.3974 -10.874847c0 -4.349945 0.4685669 -8.430603 1.4058228 -12.241974l41.413086 -206.18721l-53.304016 7.643471l-38.484314 191.2731l-0.026184082 0c-2.616394 9.9427185 -6.9314575 18.041931 -12.945251 24.297546c-5.9747925 6.214203 -12.457153 9.321289 -19.447205 9.321289c-5.2718506 0 -9.040222 -1.0771484 -11.305176 -3.2313843c-2.2648926 -2.1956787 -3.3973389 -5.820648 -3.3973389 -10.874847c0 -4.349945 0.4685669 -8.430603 1.4057617 -12.241974l41.413147 -206.18721l-53.304016 7.643471l-38.484344 191.2731l-0.026184082 0c-2.616394 9.9427185 -6.931488 18.041931 -12.945282 24.297546c-5.9747314 6.214203 -12.457123 9.321289 -19.447174 9.321289c-5.27182 0 -9.040192 -1.0771484 -11.305145 -3.2313843c-2.264923 -2.1956787 -3.3974 -5.820648 -3.3974 -10.874847c0 -4.349945 0.46862793 -8.430603 1.4058228 -12.241974l25.949097 -129.81467l-51.83963 0l-24.48468 122.54404c-0.005432129 0.028869629 -0.01083374 0.05770874 -0.016235352 0.08654785l0 0c-4.3237305 11.43161 -8.64743 19.874786 -12.97113 25.32956c-4.2955627 5.4684753 -10.036011 8.202728 -17.221313 8.202728c-5.3108826 0 -9.040192 -1.3878479 -11.187988 -4.163513c-2.1477966 -2.8171082 -3.2216797 -6.773468 -3.2216797 -11.86911c0 -4.349945 0.78100586 -10.27417 2.343048 -17.772614c1.5620117 -7.498474 3.2997742 -15.204086 5.213257 -23.116837c3.1240234 -12.966965 5.525635 -23.966095 7.204834 -32.99742c1.6791687 -9.031296 2.5187378 -17.23404 2.5187378 -24.60823c0 -14.541229 -3.612152 -25.37465 -10.836517 -32.500275c-7.1853027 -7.1256256 -16.889374 -10.688431 -29.112213 -10.688431c-16.088837 0 -30.127502 7.1256256 -42.116028 21.376862l19.447174 -96.19585z" fill-rule="evenodd"/></g></svg>