<svg xmlns="http://www.w3.org/2000/svg" width="992" height="1056" viewBox="0 0 992 1056" version="1.1"><path d="M 490.806 121.405 C 461.992 131.575, 457.734 147.858, 462.932 228 C 464.144 246.700, 464.188 445.282, 462.981 454.500 C 462.477 458.350, 461.599 471.625, 461.029 484 C 460.459 496.375, 459.338 513.475, 458.537 522 C 457.736 530.525, 456.807 541.550, 456.473 546.500 C 454.918 569.520, 447.525 612.467, 441.063 636.012 C 432.242 668.159, 421.841 690.712, 402.117 720.464 C 371.497 766.651, 312.239 779.155, 272.389 747.838 C 262.657 740.190, 263.980 743.203, 277.071 758.500 C 290.497 774.189, 303.959 785.851, 317.310 793.362 C 319.889 794.813, 324.056 797.157, 326.570 798.571 C 394.631 836.864, 486.180 783.312, 522.432 684 C 523.938 679.875, 526.073 674.025, 527.176 671 C 528.280 667.975, 529.774 663.925, 530.496 662 C 542.968 628.763, 556.340 550.561, 558.538 498 C 558.872 490.025, 559.826 477.425, 560.658 470 C 562.502 453.552, 562.803 325.203, 561.049 303 C 558.903 275.818, 558.100 254.509, 557.509 209 C 556.902 162.381, 556.782 159.759, 554.820 150.500 C 549.727 126.464, 517.706 111.910, 490.806 121.405 M 381 160.660 C 363.017 163.446, 348.813 174.192, 343.167 189.283 C 341.199 194.544, 341.153 197.900, 340.464 389.567 C 340.079 496.780, 339.565 584.837, 339.323 585.250 C 337.356 588.597, 335.672 585.387, 327.127 562 C 324.414 554.575, 319.931 542.425, 317.165 535 C 309.474 514.354, 298.433 483.381, 292.009 464.428 C 279.722 428.179, 264.708 416.253, 232.546 417.196 C 186.149 418.557, 167.173 453.492, 183.766 507 C 195.952 546.296, 232.985 655.217, 236.976 663.500 C 237.506 664.600, 239.298 668.986, 240.958 673.247 C 259.628 721.162, 287.664 745.401, 324.500 745.476 C 411.106 745.651, 454.320 601.169, 445.627 340.500 C 444.729 313.550, 443.545 272.074, 442.998 248.332 C 441.629 188.979, 441.070 185.865, 429.743 174.581 C 418.294 163.177, 399.465 157.799, 381 160.660" stroke="none" fill="#305141" fill-rule="evenodd"/><path d="M 490.806 121.405 C 461.992 131.575, 457.734 147.858, 462.932 228 C 464.144 246.700, 464.188 445.282, 462.981 454.500 C 462.477 458.350, 461.599 471.625, 461.029 484 C 460.459 496.375, 459.338 513.475, 458.537 522 C 457.736 530.525, 456.807 541.550, 456.473 546.500 C 454.918 569.520, 447.525 612.467, 441.063 636.012 C 432.242 668.159, 421.841 690.712, 402.117 720.464 C 371.497 766.651, 312.239 779.155, 272.389 747.838 C 262.657 740.190, 263.980 743.203, 277.071 758.500 C 290.497 774.189, 303.959 785.851, 317.310 793.362 C 319.889 794.813, 324.056 797.157, 326.570 798.571 C 394.631 836.864, 486.180 783.312, 522.432 684 C 523.938 679.875, 526.073 674.025, 527.176 671 C 528.280 667.975, 529.774 663.925, 530.496 662 C 542.968 628.763, 556.340 550.561, 558.538 498 C 558.872 490.025, 559.826 477.425, 560.658 470 C 562.502 453.552, 562.803 325.203, 561.049 303 C 558.903 275.818, 558.100 254.509, 557.509 209 C 556.902 162.381, 556.782 159.759, 554.820 150.500 C 549.727 126.464, 517.706 111.910, 490.806 121.405 M 381 160.660 C 363.017 163.446, 348.813 174.192, 343.167 189.283 C 341.199 194.544, 341.153 197.900, 340.464 389.567 C 340.079 496.780, 339.565 584.837, 339.323 585.250 C 337.356 588.597, 335.672 585.387, 327.127 562 C 324.414 554.575, 319.931 542.425, 317.165 535 C 309.474 514.354, 298.433 483.381, 292.009 464.428 C 279.722 428.179, 264.708 416.253, 232.546 417.196 C 186.149 418.557, 167.173 453.492, 183.766 507 C 195.952 546.296, 232.985 655.217, 236.976 663.500 C 237.506 664.600, 239.298 668.986, 240.958 673.247 C 259.628 721.162, 287.664 745.401, 324.500 745.476 C 411.106 745.651, 454.320 601.169, 445.627 340.500 C 444.729 313.550, 443.545 272.074, 442.998 248.332 C 441.629 188.979, 441.070 185.865, 429.743 174.581 C 418.294 163.177, 399.465 157.799, 381 160.660" stroke="none" fill="#305141" fill-rule="evenodd"/><path d="M 490.806 121.405 C 461.992 131.575, 457.734 147.858, 462.932 228 C 464.144 246.700, 464.188 445.282, 462.981 454.500 C 462.477 458.350, 461.599 471.625, 461.029 484 C 460.459 496.375, 459.338 513.475, 458.537 522 C 457.736 530.525, 456.807 541.550, 456.473 546.500 C 454.918 569.520, 447.525 612.467, 441.063 636.012 C 432.242 668.159, 421.841 690.712, 402.117 720.464 C 371.497 766.651, 312.239 779.155, 272.389 747.838 C 262.657 740.190, 263.980 743.203, 277.071 758.500 C 290.497 774.189, 303.959 785.851, 317.310 793.362 C 319.889 794.813, 324.056 797.157, 326.570 798.571 C 394.631 836.864, 486.180 783.312, 522.432 684 C 523.938 679.875, 526.073 674.025, 527.176 671 C 528.280 667.975, 529.774 663.925, 530.496 662 C 542.968 628.763, 556.340 550.561, 558.538 498 C 558.872 490.025, 559.826 477.425, 560.658 470 C 562.502 453.552, 562.803 325.203, 561.049 303 C 558.903 275.818, 558.100 254.509, 557.509 209 C 556.902 162.381, 556.782 159.759, 554.820 150.500 C 549.727 126.464, 517.706 111.910, 490.806 121.405 M 381 160.660 C 363.017 163.446, 348.813 174.192, 343.167 189.283 C 341.199 194.544, 341.153 197.900, 340.464 389.567 C 340.079 496.780, 339.565 584.837, 339.323 585.250 C 337.356 588.597, 335.672 585.387, 327.127 562 C 324.414 554.575, 319.931 542.425, 317.165 535 C 309.474 514.354, 298.433 483.381, 292.009 464.428 C 279.722 428.179, 264.708 416.253, 232.546 417.196 C 186.149 418.557, 167.173 453.492, 183.766 507 C 195.952 546.296, 232.985 655.217, 236.976 663.500 C 237.506 664.600, 239.298 668.986, 240.958 673.247 C 259.628 721.162, 287.664 745.401, 324.500 745.476 C 411.106 745.651, 454.320 601.169, 445.627 340.500 C 444.729 313.550, 443.545 272.074, 442.998 248.332 C 441.629 188.979, 441.070 185.865, 429.743 174.581 C 418.294 163.177, 399.465 157.799, 381 160.660" stroke="none" fill="#305141" fill-rule="evenodd"/><path d="M 372 160.886 C 354.838 166.434, 342.093 180.341, 339.005 196.886 C 338.354 200.376, 338 269.135, 338 392.136 C 338 496.561, 337.646 582, 337.212 582 C 336.779 582, 334.703 577.251, 332.598 571.447 C 330.494 565.643, 328.586 561.080, 328.359 561.307 C 327.960 561.707, 332.076 573.459, 335.410 581.438 C 338.805 589.565, 338.911 584.138, 339.043 394.494 C 339.119 285.963, 339.567 202.593, 340.095 198.672 C 342.799 178.600, 358.694 163.186, 379.907 160.066 C 384.842 159.341, 385.029 159.236, 381.500 159.176 C 379.300 159.138, 375.025 159.908, 372 160.886 M 610.176 180.001 C 593.909 183.462, 580.858 195.782, 575.792 212.458 C 573.507 219.980, 573.881 253.662, 577.081 328.500 C 578.369 358.620, 577.693 486.662, 576.181 499 C 575.608 503.675, 574.653 514.741, 574.059 523.592 C 568.072 612.805, 545.744 692.698, 512.693 743.172 C 464.035 817.481, 385.757 848.020, 323.779 816.875 C 308.875 809.386, 320.663 821.272, 349.500 842.810 C 365.062 854.433, 398.238 868.393, 420 872.475 C 462.125 880.377, 511.107 870.965, 543.457 848.752 C 646.344 778.105, 685.506 627.930, 676.072 340.220 C 675.427 320.574, 674.516 285.150, 674.047 261.500 C 673.047 211.141, 672.347 207.576, 660.891 194.529 C 650.814 183.052, 627.384 176.340, 610.176 180.001 M 602.916 183.890 C 578.999 193.876, 573.793 208.865, 577.004 258.500 C 580.205 307.998, 580.193 492.284, 576.987 513.500 C 576.489 516.800, 575.596 526.025, 575.004 534 C 569.357 610.016, 544.271 699.933, 518.159 737.753 C 517.116 739.264, 513.878 744.100, 510.964 748.500 C 506.246 755.622, 503.809 758.893, 496.500 767.909 C 453.835 820.543, 375.712 845.929, 330.640 821.807 C 329.474 821.183, 327.390 820.553, 326.009 820.406 C 323.245 820.113, 323.648 820.563, 331.643 826.690 C 333.214 827.894, 336.525 830.702, 339 832.930 C 341.475 835.158, 346.425 838.850, 350 841.135 C 353.575 843.419, 357.719 846.124, 359.210 847.144 C 360.700 848.165, 362.142 849, 362.416 849 C 362.689 849, 365.243 850.374, 368.092 852.054 C 422.752 884.283, 499.448 879.840, 550.983 841.459 C 627.095 784.774, 667.111 674.430, 672.999 505 C 674.073 474.091, 674.506 339.628, 673.537 338.059 C 673.265 337.620, 672.957 319.314, 672.851 297.380 C 672.444 212.858, 671.340 205.574, 656.966 192.588 C 644.600 181.416, 618.789 177.263, 602.916 183.890 M 460.500 339 C 460.500 434.497, 460.761 465.435, 461.452 452 C 462.633 429.038, 462.575 252.392, 461.378 226.500 C 460.782 213.601, 460.500 249.724, 460.500 339 M 444.642 265 C 444.906 286.175, 445.532 310.250, 446.032 318.500 C 448.281 355.607, 448.319 431.610, 446.107 471.509 C 443.540 517.810, 443.581 525.222, 446.231 494 C 448.796 463.772, 449.377 343.985, 447.138 307 C 446.389 294.625, 445.412 271.450, 444.968 255.500 C 444.200 227.915, 444.184 228.379, 444.642 265 M 726 281.651 C 719.576 282.919, 707.137 290.054, 702.650 295.044 C 689.635 309.520, 688.550 314.581, 689.362 357 C 693.132 553.766, 687.066 628.680, 660.390 714.840 C 630.508 811.354, 566.273 876.746, 491.082 887.200 C 469.477 890.204, 479.849 892.379, 516 892.425 C 624.851 892.564, 702.114 847.922, 746.286 759.368 C 768.234 715.368, 774.463 680.250, 782.444 555.500 C 786.529 491.635, 789.722 361.417, 788.014 328.279 C 786.325 295.485, 759.208 275.097, 726 281.651" stroke="none" fill="#799280" fill-rule="evenodd"/><path d="M 602.916 183.890 C 578.999 193.876, 573.793 208.865, 577.004 258.500 C 580.205 307.998, 580.193 492.284, 576.987 513.500 C 576.489 516.800, 575.596 526.025, 575.004 534 C 569.357 610.016, 544.271 699.933, 518.159 737.753 C 517.116 739.264, 513.878 744.100, 510.964 748.500 C 506.246 755.622, 503.809 758.893, 496.500 767.909 C 453.835 820.543, 375.712 845.929, 330.640 821.807 C 329.474 821.183, 327.390 820.553, 326.009 820.406 C 323.245 820.113, 323.648 820.563, 331.643 826.690 C 333.214 827.894, 336.525 830.702, 339 832.930 C 341.475 835.158, 346.425 838.850, 350 841.135 C 353.575 843.419, 357.719 846.124, 359.210 847.144 C 360.700 848.165, 362.142 849, 362.416 849 C 362.689 849, 365.243 850.374, 368.092 852.054 C 422.752 884.283, 499.448 879.840, 550.983 841.459 C 627.095 784.774, 667.111 674.430, 672.999 505 C 674.073 474.091, 674.506 339.628, 673.537 338.059 C 673.265 337.620, 672.957 319.314, 672.851 297.380 C 672.444 212.858, 671.340 205.574, 656.966 192.588 C 644.600 181.416, 618.789 177.263, 602.916 183.890" stroke="none" fill="#66806d" fill-rule="evenodd"/><path d="" stroke="none" fill="#4e6c5b" fill-rule="evenodd"/><path d="M 0 528.001 L 0 1056.002 496.250 1055.751 L 992.500 1055.500 992.751 527.750 L 993.002 -0 496.501 -0 L 0 0 0 528.001 M 0.496 528.500 C 0.496 818.900, 0.610 937.849, 0.750 792.832 C 0.890 647.814, 0.890 410.214, 0.750 264.832 C 0.610 119.449, 0.496 238.100, 0.496 528.500 M 491.989 118.872 C 461.955 128.485, 459.377 136.151, 460 214 C 460.810 315.232, 460.269 469.917, 459.051 485.500 C 458.449 493.200, 457.294 509.175, 456.484 521 C 449.877 617.488, 431.358 680.914, 396.899 725.078 C 362.288 769.438, 308.583 776.143, 266.228 741.394 C 258.609 735.144, 261.988 742.155, 273.481 756.444 C 335.392 833.419, 424.931 830.521, 488.072 749.499 C 526.699 699.933, 551.437 618.496, 559.521 514.294 C 560.366 503.407, 561.494 490, 562.029 484.500 C 564.767 456.329, 563.993 294.476, 560.900 248.500 C 560.345 240.250, 559.518 215.500, 559.063 193.500 C 558.059 145.017, 557.260 141.544, 544.301 129.394 C 532.477 118.307, 508.696 113.524, 491.989 118.872 M 380.992 158.931 C 359.621 161.857, 342.686 177.166, 339.005 196.886 C 338.354 200.376, 338 269.135, 338 392.136 C 338 496.561, 337.640 582, 337.201 582 C 336.761 582, 335.805 580.313, 335.075 578.250 C 334.345 576.188, 330.154 565.050, 325.762 553.500 C 321.370 541.950, 311.282 514.050, 303.344 491.500 C 285.568 441, 286.552 443.521, 282.372 437.826 C 245.126 387.086, 163.333 424.813, 176.444 486.685 C 180.332 505.032, 220.820 626.579, 235.455 663.840 C 288.862 799.813, 397.889 768.256, 431.831 607 C 446.209 538.688, 453.401 398.839, 447.219 307.762 C 446.556 298.006, 445.558 270.106, 445 245.762 C 444.442 221.418, 443.498 198.818, 442.901 195.540 C 438.345 170.499, 411.677 154.729, 380.992 158.931 M 610.176 180.001 C 593.909 183.462, 580.858 195.782, 575.792 212.458 C 573.507 219.980, 573.881 253.662, 577.081 328.500 C 578.369 358.620, 577.693 486.662, 576.181 499 C 575.608 503.675, 574.653 514.741, 574.059 523.592 C 568.072 612.805, 545.744 692.698, 512.693 743.172 C 464.035 817.481, 385.757 848.020, 323.779 816.875 C 308.875 809.386, 320.663 821.272, 349.500 842.810 C 365.062 854.433, 398.238 868.393, 420 872.475 C 462.125 880.377, 511.107 870.965, 543.457 848.752 C 646.344 778.105, 685.506 627.930, 676.072 340.220 C 675.427 320.574, 674.516 285.150, 674.047 261.500 C 673.047 211.141, 672.347 207.576, 660.891 194.529 C 650.814 183.052, 627.384 176.340, 610.176 180.001 M 726 281.651 C 719.576 282.919, 707.137 290.054, 702.650 295.044 C 689.635 309.520, 688.550 314.581, 689.362 357 C 693.132 553.766, 687.066 628.680, 660.390 714.840 C 630.508 811.354, 566.273 876.746, 491.082 887.200 C 469.477 890.204, 479.849 892.379, 516 892.425 C 624.851 892.564, 702.114 847.922, 746.286 759.368 C 768.234 715.368, 774.463 680.250, 782.444 555.500 C 786.529 491.635, 789.722 361.417, 788.014 328.279 C 786.325 295.485, 759.208 275.097, 726 281.651" stroke="none" fill="#fafbfa" fill-rule="evenodd"/></svg>